<?xml version="1.0" encoding="iso-8859-1"?>
<!-- Uploaded to: SVG Repo, www.svgrepo.com, Generator: SVG Repo Mixer Tools -->
<svg height="800px" width="800px" version="1.1" id="Layer_1" xmlns="http://www.w3.org/2000/svg" xmlns:xlink="http://www.w3.org/1999/xlink" 
	 viewBox="0 0 512 512" xml:space="preserve">
<circle style="fill:#FF764C;" cx="256" cy="256" r="256"/>
<path style="fill:#FF450C;" d="M510.883,279.876L399.374,168.367L200.835,281.859l-72.211,98.478l131.61,131.61
	C391.642,509.812,498.967,408.681,510.883,279.876z"/>
<path style="fill:#00447D;" d="M128.624,380.337L128.624,380.337c-11.109-11.109-11.109-29.118,0-40.227l181.02-181.019
	l40.227,40.227l-181.02,181.019C157.743,391.446,139.733,391.446,128.624,380.337z"/>
<path style="fill:#062964;" d="M128.431,380.121c0.069,0.071,0.126,0.145,0.195,0.215c11.109,11.109,29.118,11.109,40.227,0
	L349.87,199.318L329.552,179L128.431,380.121z"/>
<path style="fill:#FFFFFF;" d="M332.595,106.879H279.38c-3.387,0-6.635,1.345-9.03,3.741l-15.672,15.672
	c-4.987,4.987-4.987,13.072,0,18.06L357.297,246.97c4.987,4.987,13.072,4.987,18.06,0l42.279-42.279
	c4.987-4.987,4.987-13.072,0-18.06l-76.012-76.012C339.23,108.223,335.982,106.879,332.595,106.879z"/>
<path style="fill:#D0D1D3;" d="M417.637,186.63l-47.857-47.856l-60.34,60.338l47.857,47.857c4.987,4.987,13.072,4.987,18.06,0
	l42.279-42.281C422.624,199.704,422.624,191.617,417.637,186.63z"/>
</svg>