<?xml version="1.0" encoding="iso-8859-1"?>
<!-- Uploaded to: SVG Repo, www.svgrepo.com, Generator: SVG Repo Mixer Tools -->
<svg fill="#000000" height="800px" width="800px" version="1.1" id="Layer_1" xmlns="http://www.w3.org/2000/svg" xmlns:xlink="http://www.w3.org/1999/xlink" 
	 viewBox="0 0 512 512" xml:space="preserve">
<g>
	<g>
		<path d="M505.264,223.487l-60.553-60.553c2.299-1.096,4.462-2.57,6.364-4.474c8.978-8.978,8.978-23.534,0-32.513L386.05,60.921
			c-8.977-8.977-23.534-8.978-32.513,0c-1.904,1.904-3.378,4.066-4.475,6.365L288.51,6.733C284.201,2.423,278.352,0,272.255,0
			s-11.946,2.423-16.257,6.733L147.624,115.11c-8.978,8.978-8.978,23.534,0,32.513l59.606,59.607L6.735,407.726
			c-8.978,8.978-8.978,23.534,0,32.513l65.025,65.027C76.071,509.577,81.919,512,88.015,512c6.099,0,11.946-2.423,16.257-6.735
			L304.768,304.77l59.607,59.607c4.311,4.311,10.159,6.735,16.256,6.735s11.946-2.422,16.257-6.735l108.377-108.377
			C514.244,247.022,514.244,232.465,505.264,223.487z M88.017,456.496l-32.513-32.513l184.238-184.241l11.742,11.742l20.774,20.772
			L88.017,456.496z M277.883,212.856l-81.489-81.491l75.861-75.863l119.216,119.214l-75.864,75.863L277.883,212.856z
			 M380.632,315.606l-32.513-32.513l75.864-75.863l32.513,32.513L380.632,315.606z"/>
	</g>
</g>
</svg>