<?xml version="1.0" encoding="iso-8859-1"?>
<!-- Uploaded to: SVG Repo, www.svgrepo.com, Generator: SVG Repo Mixer Tools -->
<svg fill="#000000" version="1.1" id="Layer_1" xmlns="http://www.w3.org/2000/svg" xmlns:xlink="http://www.w3.org/1999/xlink" 
	 viewBox="0 0 512 512" xml:space="preserve">
<g>
	<g>
		
			<rect x="141.633" y="318.59" transform="matrix(0.7071 -0.7071 0.7071 0.7071 -211.2707 212.4137)" width="18.276" height="85.286"/>
	</g>
</g>
<g>
	<g>
		
			<rect x="115.778" y="344.444" transform="matrix(0.7071 -0.7071 0.7071 0.7071 -237.1248 201.7042)" width="18.276" height="85.287"/>
	</g>
</g>
<g>
	<g>
		
			<rect x="89.933" y="370.277" transform="matrix(0.7071 -0.7071 0.7071 0.7071 -262.9618 190.9951)" width="18.276" height="85.287"/>
	</g>
</g>
<g>
	<g>
		
			<rect x="167.474" y="292.739" transform="matrix(0.7071 -0.7071 0.7071 0.7071 -185.4226 223.1155)" width="18.276" height="85.287"/>
	</g>
</g>
<g>
	<g>
		
			<rect x="193.323" y="266.905" transform="matrix(0.7071 -0.7071 0.7071 0.7071 -159.5841 233.8254)" width="18.276" height="85.287"/>
	</g>
</g>
<g>
	<g>
		<path d="M439.997,0l-61.6,50.4l22.216,22.216L292.922,180.308l-43.078-43.075l-26.369,26.369v34.461l-25.323,25.323
			l-12.924-12.922L0.001,395.693L116.307,512l185.23-185.23l-12.922-12.923l25.323-25.323h34.461l26.37-26.369l-43.078-43.078
			l107.691-107.691l22.216,22.216l50.4-61.601L439.997,0z M116.307,486.154l-90.462-90.461l159.386-159.386l90.462,90.461
			L116.307,486.154z M275.692,300.923l-64.615-64.615l21.539-21.539l64.615,64.615L275.692,300.923z M348.922,262.155l-8.093,8.093
			h-26.891l-72.185-72.185v-26.891l8.093-8.093L348.922,262.155z M460.244,106.4l-20.86-20.86L318.769,206.155l-12.922-12.924
			L426.461,72.616l-20.86-20.859l33.17-27.138l48.613,48.612L460.244,106.4z"/>
	</g>
</g>
</svg>